<?xml version="1.0" encoding="utf-8"?>
<!-- Generated by IcoMoon.io -->
<!DOCTYPE svg PUBLIC "-//W3C//DTD SVG 1.1//EN" "http://www.w3.org/Graphics/SVG/1.1/DTD/svg11.dtd">
<svg version="1.1" xmlns="http://www.w3.org/2000/svg" xmlns:xlink="http://www.w3.org/1999/xlink" width="48" height="32" viewBox="0 0 48 32">
<path d="M9.999 29.064v0.936c-3.866 0-7-3.134-7-7 0-1.026 0.222-1.999 0.615-2.878-0.396-1.308-0.615-2.688-0.615-4.121 0-7.733 6.266-14.001 14-14.001 7.732 0 13.999 6.268 13.999 14.001 0 1.435-0.216 2.816-0.615 4.121 0.397 0.879 0.615 1.852 0.615 2.878 0 3.866-3.135 7-7 7v-14c1.737 0 3.322 0.63 4.55 1.681 0.078-0.553 0.116-1.11 0.116-1.681 0-6.441-5.227-11.668-11.666-11.668s-11.667 5.227-11.667 11.668c0 0.569 0.039 1.128 0.116 1.681 1.23-1.051 2.816-1.681 4.55-1.681v13.064h0.002zM28.666 2v4.667h16.334v-4.667h-16.334zM33.332 8.999v4.666h11.668v-4.666h-11.668zM35.667 16v4.667h9.333v-4.667h-9.333z"></path>
</svg>
