<?xml version="1.0" encoding="utf-8"?>
<!-- Generated by IcoMoon.io -->
<!DOCTYPE svg PUBLIC "-//W3C//DTD SVG 1.1//EN" "http://www.w3.org/Graphics/SVG/1.1/DTD/svg11.dtd">
<svg version="1.1" xmlns="http://www.w3.org/2000/svg" xmlns:xlink="http://www.w3.org/1999/xlink" width="40" height="32" viewBox="0 0 40 32">
<path d="M20 28c-0.1-0.5-0.2-1.5-0.4-2h16.4v-22h-30v8.6c-0.5-0.1-1.6-0.3-2-0.4v-10.2h34v26h-18zM8 13.5v-7.5h26v18h-15c-2-5.1-5.8-8.6-11-10.5v0zM17.4 30h-2.8c-0.7-6.4-6-11.6-12.6-12.2v-2.8c8.2 0.7 14.7 7 15.4 15v0zM11.8 30h-2.8c-0.6-3.4-3.4-6.1-6.9-6.7v-2.8c5 0.7 9 4.6 9.7 9.5v0zM6 30h-4v-3.9c2 0.5 3.5 2 4 3.9v0z"></path>
</svg>
