<?xml version="1.0" encoding="utf-8"?>
<!-- Generated by IcoMoon.io -->
<!DOCTYPE svg PUBLIC "-//W3C//DTD SVG 1.1//EN" "http://www.w3.org/Graphics/SVG/1.1/DTD/svg11.dtd">
<svg version="1.1" xmlns="http://www.w3.org/2000/svg" xmlns:xlink="http://www.w3.org/1999/xlink" width="48" height="32" viewBox="0 0 48 32">
<path d="M2 30v-28h44v28h-44zM43.684 4.333h-39.368v23.333h39.368v-23.333zM12.792 11.052c0.556-0.637 1.244-1.138 2.056-1.499 0.811-0.364 1.728-0.546 2.747-0.546 0.731 0 1.424 0.107 2.077 0.32 0.653 0.209 1.237 0.521 1.753 0.929 0.514 0.407 0.94 0.909 1.274 1.511 0.336 0.6 0.547 1.288 0.634 2.062h-2.825c-0.053-0.338-0.163-0.646-0.338-0.928-0.174-0.28-0.394-0.527-0.653-0.742-0.259-0.209-0.556-0.378-0.885-0.497-0.329-0.116-0.671-0.176-1.033-0.176-0.658 0-1.216 0.13-1.677 0.386-0.458 0.257-0.834 0.6-1.116 1.031-0.285 0.432-0.494 0.924-0.625 1.469-0.129 0.554-0.195 1.121-0.195 1.712 0 0.561 0.065 1.109 0.195 1.642 0.132 0.53 0.341 1.009 0.625 1.433 0.285 0.427 0.658 0.766 1.116 1.021 0.463 0.258 1.020 0.386 1.677 0.386 0.894 0 1.593-0.274 2.096-0.826 0.5-0.551 0.811-1.276 0.919-2.177h2.829c-0.076 0.841-0.268 1.596-0.578 2.271-0.311 0.678-0.718 1.253-1.227 1.728-0.51 0.476-1.107 0.839-1.791 1.088-0.683 0.251-1.436 0.374-2.253 0.374-1.019 0-1.934-0.176-2.747-0.536-0.81-0.351-1.498-0.843-2.061-1.47-0.556-0.625-0.984-1.36-1.28-2.206-0.302-0.844-0.45-1.753-0.45-2.729 0-1.003 0.153-1.929 0.452-2.787 0.296-0.853 0.724-1.602 1.283-2.239v-0.005zM26.589 11.052c0.556-0.637 1.247-1.138 2.062-1.499 0.81-0.364 1.725-0.546 2.744-0.546 0.731 0 1.424 0.107 2.077 0.32 0.648 0.209 1.234 0.521 1.749 0.929s0.942 0.909 1.273 1.511c0.338 0.6 0.549 1.288 0.637 2.062h-2.832c-0.047-0.338-0.163-0.646-0.333-0.928-0.176-0.28-0.394-0.527-0.653-0.742-0.255-0.209-0.557-0.378-0.881-0.497-0.331-0.116-0.675-0.176-1.035-0.176-0.658 0-1.218 0.13-1.677 0.386-0.463 0.257-0.833 0.6-1.118 1.031-0.287 0.432-0.494 0.924-0.625 1.469-0.129 0.554-0.195 1.121-0.195 1.712 0 0.561 0.065 1.109 0.195 1.642 0.132 0.53 0.338 1.009 0.625 1.433 0.285 0.427 0.658 0.766 1.116 1.021 0.457 0.258 1.019 0.386 1.675 0.386 0.894 0 1.591-0.274 2.096-0.826 0.502-0.551 0.81-1.276 0.922-2.177h2.83c-0.075 0.841-0.267 1.596-0.58 2.271-0.308 0.678-0.717 1.253-1.227 1.728s-1.105 0.839-1.788 1.088c-0.684 0.251-1.436 0.374-2.253 0.374-1.019 0-1.934-0.176-2.747-0.536-0.811-0.351-1.5-0.843-2.061-1.47-0.556-0.625-0.984-1.36-1.283-2.206-0.296-0.844-0.446-1.753-0.446-2.729 0-1.003 0.15-1.929 0.446-2.787 0.302-0.853 0.727-1.602 1.285-2.239l0.002-0.005z"></path>
</svg>
