<?xml version="1.0" encoding="utf-8"?>
<!-- Generated by IcoMoon.io -->
<!DOCTYPE svg PUBLIC "-//W3C//DTD SVG 1.1//EN" "http://www.w3.org/Graphics/SVG/1.1/DTD/svg11.dtd">
<svg version="1.1" xmlns="http://www.w3.org/2000/svg" xmlns:xlink="http://www.w3.org/1999/xlink" width="48" height="32" viewBox="0 0 48 32">
<path d="M2 30v-28h44v28h-44zM43.7 4.3h-39.4v23.3h39.4v-23.3zM14.3 14.3h5.7v-5.4h3v14h-3v-6h-5.7v6h-3.1v-14h3.1v5.4zM33.2 9.4c0.8 0.3 1.4 0.7 2 1.3s1 1.3 1.3 2.2 0.5 1.9 0.5 3c0 1-0.1 2-0.4 2.8-0.3 0.9-0.7 1.6-1.2 2.2s-1.2 1.1-2 1.5-1.7 0.5-2.8 0.5h-5.5v-14h5.5c0.9 0.1 1.8 0.2 2.6 0.5v0zM28.2 11.5v8.8h2.2c0.4 0 0.9-0.1 1.3-0.2s0.8-0.4 1.1-0.7c0.3-0.3 0.6-0.8 0.8-1.3s0.3-1.2 0.3-2c0-0.7-0.1-1.3-0.2-1.9s-0.4-1.1-0.7-1.5c-0.3-0.4-0.7-0.7-1.2-0.9s-1.2-0.3-1.9-0.3h-1.7z"></path>
</svg>
