<?xml version="1.0" encoding="utf-8"?>
<!-- Generated by IcoMoon.io -->
<!DOCTYPE svg PUBLIC "-//W3C//DTD SVG 1.1//EN" "http://www.w3.org/Graphics/SVG/1.1/DTD/svg11.dtd">
<svg version="1.1" xmlns="http://www.w3.org/2000/svg" xmlns:xlink="http://www.w3.org/1999/xlink" width="48" height="32" viewBox="0 0 48 32">
<path d="M41.3 30h-34.7c-2.6 0-4.7-2.1-4.7-4.7v-18.6c0-2.6 2.1-4.7 4.7-4.7h34.7c2.6 0 4.7 2.1 4.7 4.7v18.6c0 2.6-2.1 4.7-4.7 4.7zM22.9 9.1h-3v5.4h-5.6v-5.4h-3.1v14h3.1v-6h5.6v6h3v-14zM36.4 13c-0.3-0.9-0.8-1.6-1.3-2.2-0.6-0.6-1.2-1-2-1.3s-1.6-0.4-2.5-0.4h-5.5v14h5.5c1.1 0 2-0.2 2.8-0.5 0.8-0.4 1.4-0.9 2-1.5 0.5-0.6 0.9-1.4 1.2-2.2 0.3-0.9 0.4-1.8 0.4-2.8-0.1-1.2-0.2-2.2-0.6-3.1v0 0zM32.675 20.075c-0.3 0.306-0.7 0.613-1.1 0.716s-0.8 0.203-1.3 0.203h-2.2v-8.978h1.7c0.8 0 1.4 0.103 1.9 0.306s0.9 0.509 1.2 0.919 0.5 0.919 0.7 1.531c0.1 0.613 0.2 1.225 0.2 1.938 0 0.816-0.1 1.428-0.3 2.041-0.2 0.509-0.5 1.019-0.8 1.325v0 0z"></path>
</svg>
