<?xml version="1.0" encoding="utf-8"?>
<!-- Generated by IcoMoon.io -->
<!DOCTYPE svg PUBLIC "-//W3C//DTD SVG 1.1//EN" "http://www.w3.org/Graphics/SVG/1.1/DTD/svg11.dtd">
<svg version="1.1" xmlns="http://www.w3.org/2000/svg" xmlns:xlink="http://www.w3.org/1999/xlink" width="31" height="32" viewBox="0 0 31 32">
<path d="M4.5 16.2c0 0.2-0.2 0.2-0.2 0l-0.1-0.4c0 0-0.2-0.6-0.4-1.2 0-0.2-0.2-0.4-0.3-0.7-0.2-0.2-0.5-0.3-0.9-0.2-0.3 0.1-0.5 0.4-0.5 0.7s0 0.5 0 0.8c0.1 0.8 0.7 3.8 1 4.4 0.3 0.7 1.1 1 1.7 0.7 0.7-0.3 0.9-1.1 1.2-1.7 0.3-0.8 1.9-5.2 1.9-5.2 0.2-0.4 0.3-0.4 0.3 0 0 0 0 4.4-0.1 6.4 0 0.8 0 2.1 0.3 2.8 0.2 0.5 0.4 0.9 0.8 1.2s0.9 0.4 1.4 0.4c0.2 0 0.5-0.1 0.7-0.2 0.3-0.2 0.5-0.4 0.8-0.7 0.5-0.6 0.9-1.4 1.2-2 0.8-1.6 2.8-6.3 2.8-6.3 0.2-0.4 0.3-0.4 0.3 0 0 0-0.3 8-0.3 11.1 0 0.8 0.2 1.5 0.4 2.2 0.3 0.7 0.7 1.2 1.4 1.5s1.5 0.3 2.2-0.1c0.5-0.3 0.9-0.8 1.2-1.2 0.4-0.7 0.8-1.5 1-2.2 0.6-1.6 1.1-3.2 1.6-4.8s4.8-16.9 5.1-18.2c0-0.2 0-0.3 0-0.4 0-0.3-0.2-0.6-0.5-0.7-0.5-0.2-1 0-1.2 0.4-0.2 0.5-6.1 14.7-6.1 14.7-0.2 0.4-0.3 0.4-0.3 0 0 0 0-4.9 0-9 0-2.2-1.1-3.4-2.6-3.7-0.7-0.1-1.4 0-2.1 0.4s-1.1 1-1.5 1.7c-0.5 0.9-3.3 9.3-3.3 9.3-0.2 0.4-0.3 0.4-0.3 0 0 0-0.1-3.6-0.2-4.5-0.1-1.3-0.4-3.4-2.1-3.6-1.6-0.1-2.3 1.8-2.7 3.1-0.3 0.8-1.6 5.1-1.6 5.1v0.1z"></path>
</svg>
