<?xml version="1.0" encoding="utf-8"?>
<!-- Generated by IcoMoon.io -->
<!DOCTYPE svg PUBLIC "-//W3C//DTD SVG 1.1//EN" "http://www.w3.org/Graphics/SVG/1.1/DTD/svg11.dtd">
<svg version="1.1" xmlns="http://www.w3.org/2000/svg" xmlns:xlink="http://www.w3.org/1999/xlink" width="48" height="32" viewBox="0 0 48 32">
<path d="M12.4 16.2c0 2.872-2.328 5.2-5.2 5.2s-5.2-2.328-5.2-5.2c0-2.872 2.328-5.2 5.2-5.2s5.2 2.328 5.2 5.2z"></path>
<path d="M29.1 16.2c0 2.872-2.328 5.2-5.2 5.2s-5.2-2.328-5.2-5.2c0-2.872 2.328-5.2 5.2-5.2s5.2 2.328 5.2 5.2z"></path>
<path d="M46 16.2c0 2.872-2.328 5.2-5.2 5.2s-5.2-2.328-5.2-5.2c0-2.872 2.328-5.2 5.2-5.2s5.2 2.328 5.2 5.2z"></path>
</svg>
