<?xml version="1.0" encoding="utf-8"?>
<!-- Generated by IcoMoon.io -->
<!DOCTYPE svg PUBLIC "-//W3C//DTD SVG 1.1//EN" "http://www.w3.org/Graphics/SVG/1.1/DTD/svg11.dtd">
<svg version="1.1" xmlns="http://www.w3.org/2000/svg" xmlns:xlink="http://www.w3.org/1999/xlink" width="32" height="32" viewBox="0 0 32 32">
<path fill="#444444" d="M13.889 27.676l-0.020 0.011c-0.322 0.195-0.695 0.312-1.098 0.312-1.182 0-2.142-0.959-2.142-2.142 0-0.824 0.471-1.532 1.154-1.891l-0.002-0.002 11.096-5.917c-0.006-0.005-0.024-0.009-0.014-0.015 0.363-0.175 0.614-0.549 0.614-0.98 0-0.395-0.219-0.741-0.534-0.93l-12.99-6.941c-0.151-0.075-0.307-0.115-0.48-0.115-0.581 0-1.044 0.456-1.076 1.024l0.002 13.466h-0.017c0 0.007 0.003 0.015 0.003 0.022 0 1.203-0.976 2.175-2.177 2.175-1.203 0-2.176-0.973-2.176-2.175 0-0.003 0-0.003 0-0.005v-15.147c0-2.444 1.983-4.427 4.428-4.427 0.836 0 1.617 0.231 2.283 0.634 0.027 0.014 0.036 0.009 0.058 0.019l15.007 8.647c0.318 0.185 0.611 0.405 0.882 0.675 1.7 1.7 1.7 4.454 0 6.154-0.25 0.249-0.525 0.457-0.813 0.634l-11.902 6.858c-0.029 0.019-0.059 0.034-0.088 0.053v0z"></path>
</svg>
