<?xml version="1.0" encoding="utf-8"?>
<!-- Generated by IcoMoon.io -->
<!DOCTYPE svg PUBLIC "-//W3C//DTD SVG 1.1//EN" "http://www.w3.org/Graphics/SVG/1.1/DTD/svg11.dtd">
<svg version="1.1" xmlns="http://www.w3.org/2000/svg" xmlns:xlink="http://www.w3.org/1999/xlink" width="32" height="32" viewBox="0 0 32 32">
<path d="M10.034 13.818v7.828h2.28v-11.324h-1.862c0 0.114-0.038 0.266-0.076 0.456-0.114 0.342-0.228 0.608-0.418 0.798-0.266 0.304-0.646 0.494-1.102 0.608-0.266 0.076-0.76 0.114-1.482 0.152v1.52h2.66z"></path>
<path d="M2.244 7.738c-1.406 2.432-2.242 5.244-2.242 8.246 0 9.006 7.182 16.302 15.998 16.302 8.854 0 15.998-7.296 15.998-16.302s-7.182-16.302-15.998-16.302v-5.396l-13.338 7.372 13.338 7.562v-5.434c6.612 0 12.008 5.472 12.008 12.198 0 6.764-5.358 12.198-12.008 12.198s-12.008-5.434-12.008-12.198c0-2.318 0.646-4.446 1.71-6.27l-3.458-1.976z"></path>
<path d="M17.938 16.098c0-1.368 0.114-2.394 0.304-3.040 0.228-0.646 0.646-0.988 1.33-0.988s1.102 0.342 1.292 0.988c0.19 0.646 0.304 1.672 0.304 3.040 0 1.292-0.114 2.28-0.304 3.002-0.19 0.684-0.646 1.026-1.292 1.026s-1.102-0.342-1.33-1.026c-0.228-0.722-0.304-1.71-0.304-3.002v0zM19.534 10.246c-1.444 0-2.47 0.494-3.040 1.52s-0.874 2.47-0.874 4.332 0.304 3.306 0.874 4.332c0.57 1.026 1.596 1.52 3.040 1.52s2.47-0.494 3.040-1.52c0.57-1.026 0.874-2.432 0.874-4.332s-0.266-3.306-0.874-4.332c-0.57-1.026-1.596-1.52-3.040-1.52v0z"></path>
</svg>
