<?xml version="1.0" encoding="utf-8"?>
<!-- Generated by IcoMoon.io -->
<!DOCTYPE svg PUBLIC "-//W3C//DTD SVG 1.1//EN" "http://www.w3.org/Graphics/SVG/1.1/DTD/svg11.dtd">
<svg version="1.1" xmlns="http://www.w3.org/2000/svg" xmlns:xlink="http://www.w3.org/1999/xlink" width="38" height="32" viewBox="0 0 38 32">
<path fill="#000" d="M10.264 22.957l8.842 8.639c0.25 0.251 0.598 0.403 0.981 0.403 0.765 0 1.391-0.619 1.391-1.378v-29.244c0-0.758-0.627-1.378-1.391-1.378-0.39 0-0.744 0.16-0.995 0.417l-8.82 8.626h-5.489c-1.537 0-2.783 1.245-2.783 2.783v8.348c0 1.537 1.245 2.783 2.783 2.783z"></path>
<path fill="#000" d="M32.126 16.892l3.16-3.208c0.582-0.591 0.582-1.548 0-2.138s-1.526-0.591-2.107 0l-3.16 3.208-3.16-3.208c-0.582-0.591-1.525-0.591-2.107 0s-0.582 1.548 0 2.138l3.16 3.208-3.16 3.208c-0.582 0.591-0.582 1.548 0 2.138s1.526 0.591 2.107 0l3.16-3.208 3.16 3.208c0.582 0.591 1.525 0.591 2.107 0s0.582-1.548 0-2.138l-3.16-3.208z"></path>
</svg>
