<?xml version="1.0" encoding="utf-8"?>
<!-- Generated by IcoMoon.io -->
<!DOCTYPE svg PUBLIC "-//W3C//DTD SVG 1.1//EN" "http://www.w3.org/Graphics/SVG/1.1/DTD/svg11.dtd">
<svg version="1.1" xmlns="http://www.w3.org/2000/svg" xmlns:xlink="http://www.w3.org/1999/xlink" width="38" height="32" viewBox="0 0 38 32">
<path fill="#000" d="M10.264 22.957l8.842 8.639c0.25 0.251 0.598 0.403 0.981 0.403 0.765 0 1.391-0.619 1.391-1.378v-29.244c0-0.758-0.627-1.378-1.391-1.378-0.39 0-0.744 0.16-0.995 0.417l-8.82 8.626h-5.489c-1.537 0-2.783 1.245-2.783 2.783v8.348c0 1.537 1.245 2.783 2.783 2.783h5.481zM29.303 7.458c-0.668 0.66-0.668 1.739 0 2.407 1.656 1.663 2.685 3.951 2.685 6.483s-1.036 4.821-2.692 6.484c-0.669 0.668-0.669 1.746 0 2.407 0.66 0.668 1.739 0.668 2.407 0 2.274-2.275 3.687-5.419 3.687-8.891 0-3.464-1.398-6.602-3.665-8.876l-0.014-0.014c-0.668-0.669-1.739-0.669-2.407 0zM27.863 21.393c1.286-1.293 2.080-3.074 2.080-5.043s-0.793-3.749-2.080-5.043c-0.668-0.668-1.746-0.668-2.407 0-0.668 0.661-0.668 1.739 0 2.407 0.668 0.675 1.085 1.607 1.085 2.637s-0.416 1.962-1.085 2.637c-0.668 0.668-0.668 1.739 0 2.407 0.66 0.661 1.739 0.668 2.407 0z"></path>
</svg>
